<svg width="25" height="24" viewBox="0 0 25 24" fill="none" xmlns="http://www.w3.org/2000/svg">
    <g>
        <path d="M17.4167 2C17.7778 2 18.1354 2.06829 18.4691 2.20096C18.8027 2.33363 19.1059 2.52809 19.3612 2.77324C19.6166 3.01838 19.8192 3.30942 19.9574 3.62972C20.0956 3.95002 20.1667 4.29331 20.1667 4.64V18.56C20.1667 18.9067 20.0956 19.25 19.9574 19.5703C19.8192 19.8906 19.6166 20.1816 19.3612 20.4268C19.1059 20.6719 18.8027 20.8664 18.4691 20.999C18.1354 21.1317 17.7778 21.2 17.4167 21.2H6.91669C6.55547 21.2 6.19779 21.1317 5.86408 20.999C5.53037 20.8662 5.22716 20.6717 4.97179 20.4264C4.71642 20.1812 4.51387 19.89 4.37573 19.5696C4.23759 19.2492 4.16656 18.9058 4.16669 18.559V4.64C4.16669 3.4304 5.01269 2.4128 6.16669 2.09888V3.68C5.86269 3.89888 5.66669 4.2464 5.66669 4.64V18.5581C5.66669 19.2205 6.22669 19.7581 6.91669 19.7581H17.4167C18.1067 19.7581 18.6667 19.2205 18.6667 18.5581V4.64C18.6667 3.9776 18.1067 3.44 17.4167 3.44H15.1667V2H17.4167ZM14.1667 2V9.81344C14.1667 10.5306 13.3667 10.7994 12.8767 10.5469L12.7947 10.497L10.6687 9.26336L8.59069 10.4643C8.09069 10.8099 7.26069 10.5987 7.17369 9.92864L7.16669 9.8144V2H14.1667ZM12.6667 3.44H8.66669V8.74208L10.2397 7.83104C10.365 7.76708 10.504 7.73173 10.6459 7.72773C10.7878 7.72374 10.9287 7.7512 11.0577 7.808L12.6677 8.74304V3.44H12.6667Z" fill="#9592A6"/>
    </g>
</svg>
