<svg width="24" height="24" viewBox="0 0 24 24" fill="none" xmlns="http://www.w3.org/2000/svg">
<path d="M19.8215 16.1988L19.8222 16.1996C19.8459 16.2282 19.8841 16.2746 19.9241 16.3233C19.9705 16.3796 20.0194 16.4391 20.0515 16.4777C20.1608 16.6099 20.23 16.7707 20.2508 16.9411C20.2717 17.1116 20.2433 17.2845 20.1688 17.4394L20.1683 17.4406C20.0083 17.7751 19.6667 17.9986 19.2422 17.9986H4.76299C4.33303 17.9986 3.98965 17.7729 3.83133 17.4394L3.83029 17.4372C3.75622 17.2824 3.72804 17.1096 3.74909 16.9393C3.77014 16.769 3.83954 16.6083 3.94907 16.4762L3.9491 16.4762L3.95347 16.4709C4.01932 16.39 4.08408 16.3119 4.15032 16.232L4.17834 16.1982L4.17851 16.198L4.20138 16.1704C4.7055 15.562 5.19124 14.9758 5.5207 14.067C5.8494 13.1603 6.00611 11.9869 6.00611 10.1883C6.00611 8.68323 6.30743 7.50618 6.8674 6.59621C7.42318 5.69306 8.26998 4.99377 9.46881 4.50025L9.51014 4.48324L9.54915 4.46143C9.63634 4.41271 9.71477 4.34977 9.7812 4.27522L9.89211 4.15077L9.93985 3.99106C10.2693 2.88899 11.1302 2.25 12 2.25C12.8698 2.25 13.7311 2.88894 14.0606 3.99226L14.1061 4.14473L14.2096 4.26557C14.2783 4.34577 14.3608 4.41313 14.4531 4.46448L14.4916 4.48589L14.5323 4.50265C15.5632 4.92677 16.307 5.48318 16.8493 6.19219L16.8497 6.19273C17.5855 7.15303 17.9944 8.47815 17.9944 10.1897C17.9944 11.9878 18.1514 13.1608 18.4802 14.0674C18.8092 14.9747 19.294 15.5609 19.7966 16.1687L19.8215 16.1988Z" stroke="#9592A6" stroke-width="1.5"/>
<path d="M12 22.5C12.6773 22.4995 13.3419 22.3156 13.9232 21.9679C14.5046 21.6202 14.9809 21.1217 15.3019 20.5252C15.317 20.4966 15.3244 20.4646 15.3235 20.4322C15.3226 20.3999 15.3134 20.3684 15.2967 20.3407C15.28 20.313 15.2564 20.2901 15.2282 20.2742C15.2 20.2583 15.1683 20.25 15.1359 20.25H8.86498C8.8326 20.2499 8.80074 20.2582 8.77251 20.274C8.74428 20.2899 8.72063 20.3128 8.70388 20.3405C8.68712 20.3682 8.67783 20.3997 8.6769 20.4321C8.67597 20.4645 8.68343 20.4965 8.69857 20.5252C9.01945 21.1216 9.49575 21.6201 10.077 21.9678C10.6582 22.3155 11.3227 22.4994 12 22.5Z" fill="#9592A6"/>
</svg>
