<svg width="25" height="25" viewBox="0 0 25 25" fill="none" xmlns="http://www.w3.org/2000/svg">
<path d="M19.0523 7.37305C18.8337 7.04539 18.5263 6.78686 18.166 6.62781C17.8056 6.46876 17.4074 6.41578 17.0181 6.4751C16.3932 6.56412 15.7564 6.44255 15.2082 6.12956C14.6601 5.81658 14.2317 5.33 13.9907 4.74658C13.6821 4 12.9912 3.48828 12.1841 3.44775C11.8881 3.43286 11.5915 3.43286 11.2954 3.44775C10.4829 3.49072 9.78908 4.00879 9.4839 4.76269C9.24779 5.34677 8.82423 5.83579 8.27984 6.15285C7.73544 6.4699 7.1011 6.597 6.47658 6.51416C5.67042 6.40723 4.87746 6.75488 4.43947 7.44189C4.26538 7.71426 4.10661 7.99611 3.96388 8.28613C3.6172 8.99219 3.75148 9.80469 4.23585 10.4243C4.62493 10.9212 4.83744 11.5334 4.83983 12.1645C4.84222 12.7955 4.63435 13.4094 4.24904 13.9092C3.76759 14.5347 3.63869 15.3491 3.99074 16.0576C4.06886 16.2139 4.15236 16.3687 4.24123 16.522C4.31772 16.6522 4.39715 16.7801 4.47951 16.9058C4.69808 17.2334 5.00556 17.4919 5.36585 17.6509C5.72615 17.81 6.12433 17.863 6.51369 17.8037C7.13862 17.7145 7.77546 17.836 8.32366 18.149C8.87186 18.462 9.30019 18.9487 9.54103 19.5322C9.84962 20.2788 10.541 20.7905 11.3477 20.8306C11.6437 20.8459 11.9403 20.8459 12.2363 20.8306C13.0488 20.7881 13.7427 20.27 14.0479 19.5161C14.2838 18.932 14.7073 18.443 15.2516 18.1259C15.7959 17.8088 16.4302 17.6817 17.0547 17.7646C17.8613 17.8716 18.6543 17.5239 19.0923 16.8369C19.2662 16.5644 19.4248 16.2824 19.5674 15.9922C19.9146 15.2866 19.7803 14.4741 19.2954 13.8545C18.9065 13.3575 18.6942 12.7451 18.6919 12.114C18.6896 11.4829 18.8975 10.869 19.2827 10.3691C19.7642 9.74414 19.8931 8.92969 19.5405 8.22314C19.4631 8.06689 19.3796 7.91211 19.2901 7.75879C19.2139 7.6276 19.1346 7.49902 19.0523 7.37305Z" stroke="#9592A6" stroke-width="1.32624" stroke-linecap="round" stroke-linejoin="round"/>
<path d="M11.7666 14.4844C13.0616 14.4844 14.1113 13.4346 14.1113 12.1396C14.1113 10.8447 13.0616 9.79492 11.7666 9.79492C10.4716 9.79492 9.42188 10.8447 9.42188 12.1396C9.42188 13.4346 10.4716 14.4844 11.7666 14.4844Z" stroke="#9592A6" stroke-width="1.5" stroke-linecap="round" stroke-linejoin="round"/>
</svg>
