<svg width="18" height="18" viewBox="0 0 18 18" fill="none" xmlns="http://www.w3.org/2000/svg">
<path d="M14.3025 3.69752C13.0719 2.45889 11.4477 1.68843 9.70993 1.51895C7.97217 1.34947 6.22973 1.7916 4.78301 2.76912C3.33628 3.74663 2.27594 5.19827 1.78479 6.87378C1.29364 8.54928 1.40245 10.3436 2.09247 11.9475C2.16438 12.0966 2.18798 12.2644 2.15997 12.4275L1.49997 15.6C1.47454 15.7217 1.47973 15.8477 1.51508 15.9668C1.55042 16.086 1.61482 16.1944 1.70247 16.2825C1.77432 16.3538 1.85987 16.4099 1.95397 16.4473C2.04806 16.4847 2.14875 16.5026 2.24997 16.5H2.39997L5.60997 15.855C5.77311 15.8354 5.93856 15.8587 6.08997 15.9225C7.69384 16.6125 9.48821 16.7213 11.1637 16.2302C12.8392 15.739 14.2909 14.6787 15.2684 13.232C16.2459 11.7853 16.688 10.0428 16.5185 8.30505C16.3491 6.56729 15.5786 4.94311 14.34 3.71252L14.3025 3.69752ZM5.99997 9.75002C5.85163 9.75002 5.70663 9.70603 5.58329 9.62362C5.45995 9.54121 5.36382 9.42407 5.30706 9.28703C5.25029 9.14999 5.23544 8.99919 5.26438 8.8537C5.29332 8.70821 5.36475 8.57458 5.46964 8.46969C5.57453 8.3648 5.70816 8.29337 5.85365 8.26443C5.99913 8.23549 6.14993 8.25034 6.28698 8.30711C6.42402 8.36387 6.54116 8.46 6.62357 8.58334C6.70598 8.70668 6.74997 8.85168 6.74997 9.00002C6.74997 9.19893 6.67095 9.38969 6.5303 9.53035C6.38964 9.671 6.19888 9.75002 5.99997 9.75002ZM8.99997 9.75002C8.85163 9.75002 8.70663 9.70603 8.58329 9.62362C8.45995 9.54121 8.36382 9.42407 8.30706 9.28703C8.25029 9.14999 8.23544 8.99919 8.26438 8.8537C8.29332 8.70821 8.36475 8.57458 8.46964 8.46969C8.57453 8.3648 8.70816 8.29337 8.85365 8.26443C8.99913 8.23549 9.14993 8.25034 9.28698 8.30711C9.42402 8.36387 9.54116 8.46 9.62357 8.58334C9.70598 8.70668 9.74997 8.85168 9.74997 9.00002C9.74997 9.19893 9.67095 9.38969 9.5303 9.53035C9.38964 9.671 9.19888 9.75002 8.99997 9.75002ZM12 9.75002C11.8516 9.75002 11.7066 9.70603 11.5833 9.62362C11.46 9.54121 11.3638 9.42407 11.3071 9.28703C11.2503 9.14999 11.2354 8.99919 11.2644 8.8537C11.2933 8.70821 11.3647 8.57458 11.4696 8.46969C11.5745 8.3648 11.7082 8.29337 11.8536 8.26443C11.9991 8.23549 12.1499 8.25034 12.287 8.30711C12.424 8.36387 12.5412 8.46 12.6236 8.58334C12.706 8.70668 12.75 8.85168 12.75 9.00002C12.75 9.19893 12.6709 9.38969 12.5303 9.53035C12.3896 9.671 12.1989 9.75002 12 9.75002Z" fill="white"/>
</svg>
