<svg width="23" height="31" viewBox="0 0 23 31" fill="none" xmlns="http://www.w3.org/2000/svg">
<path d="M19.2989 6.04156C18.3992 6.04259 17.5366 6.40021 16.9006 7.03598C16.2644 7.67175 15.9066 8.53374 15.9057 9.43279V17.8796C15.9152 18.4841 15.8044 19.0843 15.5795 19.6455C15.3547 20.2067 15.0204 20.7175 14.596 21.1483C14.1716 21.5792 13.6658 21.9213 13.1078 22.1549C12.5499 22.3884 11.951 22.5086 11.3461 22.5086C10.7412 22.5086 10.1423 22.3884 9.58436 22.1549C9.02641 21.9213 8.52052 21.5792 8.09618 21.1483C7.67183 20.7175 7.3375 20.2067 7.11264 19.6455C6.88779 19.0843 6.77691 18.4841 6.78646 17.8796V9.43279C6.78646 8.53348 6.42896 7.671 5.7926 7.03508C5.15625 6.39917 4.29316 6.04192 3.39323 6.04192C2.49329 6.04192 1.63021 6.39917 0.99385 7.03508C0.357497 7.671 0 8.53348 0 9.43279V18.774C-4.44051e-08 20.2629 0.293474 21.7374 0.863667 23.113C1.43386 24.4886 2.26961 25.7385 3.32319 26.7914C4.37677 27.8442 5.62755 28.6794 7.00412 29.2492C8.38069 29.8189 9.85609 30.1122 11.3461 30.1122C12.8361 30.1122 14.3115 29.8189 15.6881 29.2492C17.0647 28.6794 18.3154 27.8442 19.3689 26.7914C20.4226 25.7385 21.2583 24.4886 21.8284 23.113C22.3987 21.7374 22.6922 20.2629 22.6922 18.774V9.43279C22.6912 8.53372 22.3335 7.67173 21.6973 7.03598C21.0612 6.40021 20.1986 6.04259 19.2989 6.04156ZM21.2076 18.7733C21.2076 21.387 20.1686 23.8935 18.3192 25.7416C16.4698 27.5897 13.9615 28.628 11.3461 28.628C8.73063 28.628 6.22233 27.5897 4.37293 25.7416C2.52354 23.8935 1.48455 21.387 1.48455 18.7733V9.43279C1.4889 8.92979 1.69189 8.44886 2.04938 8.09469C2.40685 7.74053 2.88984 7.54182 3.39323 7.54182C3.89661 7.54182 4.37961 7.74053 4.73708 8.09469C5.09455 8.44886 5.29756 8.92979 5.30191 9.43279V17.8796C5.30191 19.4815 5.9387 21.0179 7.0722 22.1506C8.2057 23.2833 9.74307 23.9196 11.3461 23.9196C12.9491 23.9196 14.4865 23.2833 15.62 22.1506C16.7534 21.0179 17.3903 19.4815 17.3903 17.8796V9.43279C17.3903 8.92693 17.5913 8.44179 17.9493 8.0841C18.3073 7.72639 18.7927 7.52544 19.2989 7.52544C19.8052 7.52544 20.2906 7.72639 20.6486 8.0841C21.0065 8.44179 21.2076 8.92693 21.2076 9.43279V18.7733Z" fill="url(#paint0_linear_31_175)"/>
<path d="M10.6039 7.77041V17.5494C10.6039 17.7462 10.6821 17.9349 10.8213 18.074C10.9605 18.2131 11.1493 18.2912 11.3462 18.2912C11.543 18.2912 11.7318 18.2131 11.8711 18.074C12.0103 17.9349 12.0885 17.7462 12.0885 17.5494V7.77041C13.0468 7.58589 13.902 7.05103 14.4869 6.27028C15.0718 5.48953 15.3445 4.51895 15.2518 3.54805C15.159 2.57714 14.7075 1.67566 13.9853 1.01959C13.2631 0.363525 12.3222 0 11.3462 0C10.3702 0 9.42925 0.363525 8.70707 1.01959C7.9849 1.67566 7.53335 2.57714 7.44062 3.54805C7.34786 4.51895 7.62058 5.48953 8.20551 6.27028C8.79042 7.05103 9.64555 7.58589 10.6039 7.77041ZM11.3462 1.48511C11.8286 1.48511 12.3001 1.62806 12.7012 1.89587C13.1023 2.16369 13.4149 2.54433 13.5995 2.98969C13.7841 3.43504 13.8324 3.9251 13.7383 4.39788C13.6441 4.87066 13.4118 5.30493 13.0707 5.64579C12.7296 5.98663 12.295 6.21874 11.8219 6.31276C11.3488 6.4068 10.8584 6.3585 10.4128 6.17402C9.96711 5.98952 9.58621 5.67712 9.31822 5.2763C9.05025 4.87548 8.90724 4.40426 8.90727 3.9222C8.90802 3.27606 9.16522 2.65658 9.62245 2.1997C10.0797 1.74282 10.6996 1.48582 11.3462 1.48511Z" fill="url(#paint1_linear_31_175)"/>
<defs>
<linearGradient id="paint0_linear_31_175" x1="0" y1="18.077" x2="22.6922" y2="18.077" gradientUnits="userSpaceOnUse">
<stop stop-color="#EC441E"/>
<stop offset="1" stop-color="#EE2A4A"/>
</linearGradient>
<linearGradient id="paint1_linear_31_175" x1="7.42284" y1="9.1456" x2="15.2695" y2="9.1456" gradientUnits="userSpaceOnUse">
<stop stop-color="#EC441E"/>
<stop offset="1" stop-color="#EE2A4A"/>
</linearGradient>
</defs>
</svg>
